<svg width="37" height="35" viewBox="0 0 37 35" fill="none" xmlns="http://www.w3.org/2000/svg">
<g id="Frame" clip-path="url(#clip0_1_1446)">
<path id="Vector" d="M11.8094 35C7.74866 27.7072 3.46689 20.7183 0.0967259 13.3149C-0.538633 11.9199 1.90612 7.79008 3.88126 6.78179C9.33706 3.97792 15.2348 1.89229 21.1188 0.0967072C22.5829 -0.345282 25.4973 0.884 26.4089 2.2514C29.5719 7.00279 32.1271 12.1547 34.9448 17.1409C37.0304 20.8288 36.5608 23.6326 32.4172 25.4973C25.8288 28.4531 19.2818 31.547 11.8094 35ZM13.8813 29.71C19.9034 26.3674 25.1382 23.4669 30.2625 20.6354C23.4669 4.95859 18.7017 3.60499 5.31772 13.1078C7.96965 18.2321 10.6492 23.4393 13.8813 29.71Z" fill="#CBCDA9"/>
</g>
<defs>
<clipPath id="clip0_1_1446">
<rect width="36.1602" height="35" fill="white"/>
</clipPath>
</defs>
</svg>
