<svg width="284" height="40" viewBox="0 0 284 40" fill="none" xmlns="http://www.w3.org/2000/svg">
<g id="Group">
<path id="Vector" d="M180.861 0.698238C160.663 1.32322 140.478 2.37148 120.327 3.84301C102.04 4.16707 83.7501 4.49114 65.4635 4.81521C45.3979 5.17234 25.3322 5.52617 5.26982 5.8833C3.32873 5.91637 0.322846 7.3416 0.0252335 9.49433C-0.30214 11.8686 2.6343 12.2654 4.2877 12.239C17.3264 12.0075 30.3651 11.776 43.4039 11.5445C37.9774 12.2357 32.5576 12.9532 27.1377 13.7039C25.2594 13.9651 22.6371 14.8447 22.0386 16.8983C21.5029 18.7302 23.1762 20.0298 24.9519 20.0629C55.0636 20.5787 85.1787 21.0979 115.29 21.6138C121.699 21.7229 128.108 21.8353 134.516 21.9444C125.297 22.953 116.091 24.1137 106.911 25.4265C92.5165 27.4899 78.1815 29.937 63.9093 32.7246C62.3684 33.0255 60.1826 34.3747 59.9478 36.1042C59.7196 37.7576 61.5417 38.8389 63.0033 38.8521C97.2485 39.1497 131.494 39.4506 165.739 39.7483C175.395 39.8309 185.047 39.9169 194.703 39.9996C196.916 40.0194 199.753 39.3878 200.867 37.2153C201.863 35.2709 199.997 33.6538 198.096 33.6373C165.131 33.3496 132.165 33.0619 99.1995 32.7742C100.119 32.6353 101.035 32.4931 101.954 32.3576C114.411 30.5124 126.911 28.9482 139.437 27.6685C164.502 25.109 189.68 23.6838 214.875 23.4027C215.989 23.3895 217.117 23.3829 218.241 23.3763C231.012 23.5945 243.78 23.8161 256.55 24.0343C258.759 24.0707 261.607 23.4094 262.714 21.25C263.733 19.2659 261.828 17.7481 259.943 17.6721C246.911 17.1496 233.866 16.9247 220.824 17.0008C203.751 16.7065 186.678 16.4155 169.605 16.1212C139.493 15.6053 109.378 15.0861 79.2661 14.5703C76.8389 14.5273 74.4084 14.4876 71.9812 14.4446C87.7481 12.7681 103.541 11.3494 119.354 10.1954C152.32 9.61007 185.289 9.02807 218.254 8.44277C238.32 8.08563 258.386 7.73181 278.448 7.37467C280.29 7.3416 282.995 6.07841 283.547 4.1803C284.089 2.32518 282.403 1.08183 280.634 1.01569C247.391 -0.221052 214.108 -0.330177 180.861 0.698238Z" fill="#5BC8F3"/>
</g>
</svg>
