<svg width="284" height="40" viewBox="0 0 284 40" fill="none" xmlns="http://www.w3.org/2000/svg">
<g id="Group">
<path id="Vector" d="M180.861 0.69824C160.663 1.32323 140.479 2.37148 120.327 3.84301C102.04 4.16708 83.7503 4.49115 65.4636 4.81521C45.3979 5.17235 25.3322 5.52618 5.26983 5.88331C3.32873 5.91638 0.322846 7.34161 0.0252336 9.49435C-0.30214 11.8686 2.6343 12.2654 4.28771 12.239C17.3264 12.0075 30.3652 11.776 43.4039 11.5446C37.9775 12.2357 32.5576 12.9533 27.1377 13.7039C25.2595 13.9651 22.6372 14.8448 22.0386 16.8983C21.5029 18.7303 23.1762 20.0298 24.9519 20.0629C55.0637 20.5788 85.1788 21.0979 115.291 21.6138C121.699 21.7229 128.108 21.8353 134.516 21.9445C125.297 22.953 116.091 24.1137 106.911 25.4265C92.5166 27.49 78.1816 29.937 63.9094 32.7247C62.3685 33.0256 60.1827 34.3748 59.9479 36.1042C59.7197 37.7576 61.5418 38.8389 63.0034 38.8522C97.2487 39.1498 131.494 39.4507 165.739 39.7483C175.395 39.831 185.048 39.917 194.704 39.9996C196.916 40.0195 199.753 39.3879 200.867 37.2153C201.863 35.2709 199.998 33.6539 198.096 33.6373C165.131 33.3496 132.165 33.062 99.1997 32.7743C100.119 32.6354 101.035 32.4932 101.954 32.3576C114.411 30.5124 126.911 28.9483 139.437 27.6686C164.503 25.1091 189.681 23.6839 214.875 23.4028C215.989 23.3895 217.117 23.3829 218.241 23.3763C231.012 23.5946 243.78 23.8161 256.551 24.0344C258.76 24.0707 261.607 23.4094 262.715 21.25C263.733 19.266 261.828 17.7481 259.944 17.6721C246.911 17.1496 233.866 16.9247 220.824 17.0008C203.751 16.7065 186.678 16.4155 169.605 16.1212C139.493 15.6053 109.378 15.0862 79.2663 14.5703C76.8391 14.5273 74.4085 14.4876 71.9814 14.4446C87.7482 12.7681 103.542 11.3495 119.355 10.1954C152.32 9.61008 185.289 9.02809 218.255 8.44278C238.32 8.08565 258.386 7.73182 278.448 7.37468C280.29 7.34161 282.995 6.07841 283.548 4.18031C284.09 2.32519 282.403 1.08183 280.634 1.01569C247.391 -0.221053 214.108 -0.330177 180.861 0.69824Z" fill="#5BC8F3"/>
</g>
</svg>
