<svg width="214" height="68" viewBox="0 0 214 68" fill="none" xmlns="http://www.w3.org/2000/svg">
<g id="Frame" clip-path="url(#clip0_1_1452)">
<path id="Vector" d="M17.2037 19.1752C26.2508 10.6284 36.2488 3.92312 49.1991 3.3927C55.444 3.1325 60.7082 5.72456 65.6121 9.47754C66.9331 10.4883 69.4051 10.8386 71.0564 10.4083C79.5131 8.18651 87.7897 5.23417 96.3165 3.35267C99.6691 2.61208 103.482 3.96316 107.095 4.35347C111.569 9.89787 115.882 10.9187 122.868 7.02559C132.355 1.73138 143.094 -0.350268 154.242 2.34187C159.967 3.72297 164.12 6.76538 166.642 11.6192C174.438 8.93711 182.085 5.69453 190.051 3.72297C197.747 1.81145 205.763 1.20096 213.65 0.0100177C213.77 0.700566 213.89 1.40112 214.01 2.09167C211.418 2.54203 208.786 2.86228 206.234 3.48278C195.785 5.99477 185.317 8.45672 174.929 11.2089C170.045 12.5099 168.083 15.5323 168.594 21.1468C169.435 30.3141 167.233 38.9509 160.167 45.6362C156.674 48.9489 151.28 50.2299 148.808 48.3884C146.006 46.2968 144.835 40.282 147.427 36.3989C151.63 30.1139 156.264 24.0591 161.218 18.3346C164.581 14.4515 164.991 11.9895 160.848 8.57682C152.891 2.02161 143.694 2.79223 134.707 5.23417C128.352 6.95553 122.347 9.96792 115.812 12.55C116.743 15.6224 117.673 18.0543 118.204 20.5663C120.826 32.9362 115.592 42.5638 107.115 50.8404C104.403 53.4825 101.31 55.8644 98.0679 57.8059C90.7521 62.1894 86.2985 59.5973 86.2685 51.0606C86.2385 41.6831 89.391 33.3765 95.8261 26.5911C100.56 21.5972 105.774 17.0535 111.459 11.6593C110.358 11.0288 108.856 10.1681 107.365 9.29739C105.133 8.0464 103.002 5.96475 100.65 5.67452C90.1216 4.37348 81.0043 9.16729 71.847 13.3606C71.4167 13.5608 71.847 15.6124 71.8771 16.8034C75.0896 37.5999 66.8931 53.3023 49.9997 64.8215C43.7447 69.0849 36.8493 68.2742 33.8569 62.6998C32.1455 59.5073 31.7352 54.9637 32.3657 51.3007C34.3573 39.6815 41.8332 31.2648 50.2299 23.5887C51.3308 22.5779 52.4817 21.6272 53.6126 20.6464C57.3856 18.1945 61.1486 15.7425 65.1117 13.1605C59.3171 7.11566 52.7319 4.29342 45.336 5.93472C33.2364 8.62686 23.2084 15.0319 15.9927 25.3802C8.12645 33.2464 4.34345 43.2443 1.3811 53.6626C0.920731 53.5525 0.460366 53.4424 0 53.3324C0.520413 50.2799 0.530421 47.0173 1.67133 44.2151C3.5228 39.6915 6.19492 35.4982 8.35664 31.0947C9.04718 29.6936 9.24734 28.0523 9.67768 26.5211C10.1881 25.7304 10.6885 24.9298 11.1989 24.1392C13.2005 22.4879 15.2021 20.8265 17.2037 19.1752ZM66.3927 14.4215C59.2671 20.2961 52.0113 25.13 46.2567 31.3449C40.252 37.8401 34.8277 45.2559 35.0078 55.0237C35.1779 63.9007 40.4521 66.9231 48.2083 62.4596C59.2671 56.1046 64.8915 45.5862 68.6145 34.1271C70.536 28.2524 70.8362 21.7573 66.3927 14.4215ZM113.31 14.9819C104.503 20.146 97.6475 26.5011 93.3041 35.3981C90.5919 40.9625 88.6504 46.637 89.431 52.9921C89.9114 56.9152 91.8329 57.8459 95.1556 56.1246C107.225 49.8796 121.557 34.2172 113.31 14.9819ZM165.702 17.8442C157.485 24.0491 152.551 31.6652 149.309 40.3521C148.738 41.8733 150.009 45.5562 151.14 45.8965C152.881 46.4269 155.714 45.4961 157.265 44.2051C165.281 37.5198 166.242 28.3825 165.702 17.8442Z" fill="#333333"/>
</g>
<defs>
<clipPath id="clip0_1_1452">
<rect width="213.83" height="67.48" fill="white" transform="scale(1.00079)"/>
</clipPath>
</defs>
</svg>
