<svg width="284" height="40" viewBox="0 0 284 40" fill="none" xmlns="http://www.w3.org/2000/svg">
<g id="Group">
<path id="Vector" d="M180.861 0.698237C160.663 1.32322 140.478 2.37148 120.326 3.843C102.04 4.16707 83.75 4.49113 65.4634 4.8152C45.3978 5.17233 25.3321 5.52616 5.26981 5.88329C3.32872 5.91636 0.322845 7.34159 0.0252335 9.49432C-0.302139 11.8686 2.6343 12.2654 4.2877 12.239C17.3264 12.0075 30.3651 11.776 43.4038 11.5445C37.9773 12.2357 32.5575 12.9532 27.1377 13.7039C25.2594 13.9651 22.6371 14.8447 22.0386 16.8982C21.5029 18.7302 23.1761 20.0298 24.9519 20.0628C55.0636 20.5787 85.1786 21.0979 115.29 21.6137C121.699 21.7228 128.107 21.8353 134.516 21.9444C125.297 22.953 116.09 24.1137 106.911 25.4265C92.5163 27.4899 78.1814 29.9369 63.9092 32.7246C62.3683 33.0255 60.1825 34.3747 59.9477 36.1041C59.7195 37.7575 61.5416 38.8388 63.0032 38.8521C97.2484 39.1497 131.494 39.4506 165.739 39.7482C175.395 39.8309 185.047 39.9168 194.703 39.9995C196.915 40.0194 199.752 39.3878 200.867 37.2152C201.862 35.2708 199.997 33.6538 198.096 33.6372C165.13 33.3495 132.165 33.0619 99.1994 32.7742C100.119 32.6353 101.035 32.4931 101.954 32.3575C114.411 30.5123 126.91 28.9482 139.436 27.6685C164.502 25.109 189.68 23.6838 214.874 23.4027C215.989 23.3895 217.116 23.3829 218.241 23.3763C231.012 23.5945 243.779 23.8161 256.55 24.0343C258.759 24.0707 261.606 23.4093 262.714 21.25C263.732 19.2659 261.828 17.7481 259.943 17.672C246.911 17.1496 233.865 16.9247 220.823 17.0007C203.75 16.7064 186.677 16.4154 169.604 16.1211C139.493 15.6053 109.378 15.0861 79.266 14.5703C76.8388 14.5273 74.4083 14.4876 71.9811 14.4446C87.7479 12.768 103.541 11.3494 119.354 10.1954C152.32 9.61005 185.289 9.02806 218.254 8.44276C238.32 8.08562 258.385 7.73179 278.448 7.37466C280.29 7.34159 282.994 6.0784 283.547 4.18029C284.089 2.32518 282.403 1.08183 280.633 1.01569C247.39 -0.221052 214.107 -0.330176 180.861 0.698237Z" fill="#5BC8F3"/>
</g>
</svg>
